<?xml version="1.0" encoding="utf-8"?>
<!-- Generator: Adobe Illustrator 24.1.1, SVG Export Plug-In . SVG Version: 6.00 Build 0)  -->
<svg version="1.1" id="f5012172-b9a8-4d42-a752-bbc4e1a5f10b"
	 xmlns="http://www.w3.org/2000/svg" xmlns:xlink="http://www.w3.org/1999/xlink" x="0px" y="0px" viewBox="0 0 1050 813.1"
	 style="enable-background:new 0 0 1050 813.1;" xml:space="preserve">
<style type="text/css">
	.st0{fill:none;stroke:#535461;stroke-width:2;stroke-miterlimit:10;}
	.st1{fill:#E3651C;}
	.st2{opacity:0.25;enable-background:new    ;}
	.st3{opacity:0.1;fill:#FFFFFF;enable-background:new    ;}
	.st4{fill:#464353;}
	.st5{opacity:0.1;fill:#E3651C;enable-background:new    ;}
	.st6{fill:#FFFFFF;}
	.st7{opacity:0.5;fill:#E3651C;enable-background:new    ;}
	.st8{fill:#35323E;}
	.st9{opacity:0.1;enable-background:new    ;}
	.st10{fill:url(#SVGID_1_);}
	.st11{fill:#EFB7B9;}
	.st12{fill:#67647E;}
	.st13{fill:#575988;}
	.st14{fill:#444053;}
	.st15{fill:#F3F5F9;}
	.st16{fill:none;}
	.st17{opacity:0.1;}
	.st18{fill:url(#SVGID_2_);}
	.st19{fill:#DB8B8B;}
	.st20{fill:#2E3037;}
</style>
<g id="b573ecc7-29c8-4b12-9921-26ee787de98d">
	<path class="st0" d="M272.3,325.9c0,0-58-73.5-53.5-146.5c1.9-30.6-5.7-61.2-22.5-86.8c-8-12.2-17.2-23.6-27.3-34"/>
	<path class="st1" d="M171.6,12.5c4.1,10.2-2.5,47.3-2.5,47.3s-30.4-22.2-34.5-32.4c-4.1-10.2,0.9-21.8,11.1-25.9
		C155.9-2.7,167.5,2.3,171.6,12.5L171.6,12.5z"/>
	<path class="st1" d="M224.9,56.8c-2.1,10.8-27.8,38.3-27.8,38.3S183.6,60,185.7,49.2c1.9-10.8,12.3-18,23.1-16.1
		c10.8,1.9,18,12.3,16.1,23.1C224.9,56.4,224.9,56.6,224.9,56.8z"/>
	<path class="st1" d="M262.4,154C255.1,162.2,219,173,219,173s6.1-37.1,13.4-45.4c7.3-8.3,19.9-9.1,28.1-1.8
		C268.8,133.1,269.6,145.7,262.4,154L262.4,154z"/>
	<path class="st1" d="M274.2,233.9c-5.8,9.4-39.5,26.1-39.5,26.1s-0.2-37.6,5.5-47c5.9-9.3,18.3-12,27.5-6
		C276.8,212.8,279.6,224.7,274.2,233.9L274.2,233.9z"/>
	<path class="st1" d="M159.1,112.7c10.2,4.2,47.3-2.2,47.3-2.2s-22-30.5-32.2-34.7c-10.2-4-21.8,1-25.8,11.3
		C144.4,97.1,149.1,108.4,159.1,112.7z"/>
	<path class="st1" d="M174.1,206c11,0.9,44.5-16.2,44.5-16.2s-30.1-22.6-41.1-23.5c-10.9-1.1-20.7,6.8-21.9,17.8
		c-1.1,10.9,6.8,20.7,17.8,21.9C173.6,205.9,173.8,206,174.1,206L174.1,206z"/>
	<path class="st1" d="M201.1,294.7c10.6,2.8,46.5-8.5,46.5-8.5s-25.9-27.3-36.5-30.1c-10.7-2.6-21.5,4-24.1,14.6
		C184.5,281.2,190.7,291.8,201.1,294.7L201.1,294.7z"/>
	<path class="st2" d="M171.6,12.5c4.1,10.2-2.5,47.3-2.5,47.3s-30.4-22.2-34.5-32.4c-4.1-10.2,0.9-21.8,11.1-25.9
		C155.9-2.7,167.5,2.3,171.6,12.5L171.6,12.5z"/>
	<path class="st2" d="M224.9,56.8c-2.1,10.8-27.8,38.3-27.8,38.3S183.6,60,185.7,49.2c1.9-10.8,12.3-18,23.1-16.1
		c10.8,1.9,18,12.3,16.1,23.1C224.9,56.4,224.9,56.6,224.9,56.8z"/>
	<path class="st2" d="M262.4,154C255.1,162.2,219,173,219,173s6.1-37.1,13.4-45.4c7.3-8.3,19.9-9.1,28.1-1.8
		C268.8,133.1,269.6,145.7,262.4,154L262.4,154z"/>
	<path class="st2" d="M274.2,233.9c-5.8,9.4-39.5,26.1-39.5,26.1s-0.2-37.6,5.5-47c5.9-9.3,18.3-12,27.5-6
		C276.8,212.8,279.6,224.7,274.2,233.9L274.2,233.9z"/>
	<path class="st2" d="M159.1,112.7c10.2,4.2,47.3-2.2,47.3-2.2s-22-30.5-32.2-34.7c-10.2-4-21.8,1-25.8,11.3
		C144.4,97.1,149.1,108.4,159.1,112.7z"/>
	<path class="st2" d="M174.1,206c11,0.9,44.5-16.2,44.5-16.2s-30.1-22.6-41.1-23.5c-10.9-1.1-20.7,6.8-21.9,17.8
		c-1.1,10.9,6.8,20.7,17.8,21.9C173.6,205.9,173.8,206,174.1,206L174.1,206z"/>
	<path class="st2" d="M201.1,294.7c10.6,2.8,46.5-8.5,46.5-8.5s-25.9-27.3-36.5-30.1c-10.7-2.6-21.5,4-24.1,14.6
		C184.5,281.2,190.7,291.8,201.1,294.7L201.1,294.7z"/>
	<path class="st0" d="M271.8,322.9c0,0-82.8-43.6-108.3-112.3c-10.7-28.8-30-53.6-55.8-70.3c-12.3-7.9-25.2-14.6-38.7-20.1"/>
	<path class="st1" d="M52.7,77.1c7.9,7.7,16.9,44.2,16.9,44.2s-36.8-8-44.7-15.6c-8-7.6-8.3-20.2-0.8-28.2c7.6-8,20.2-8.3,28.2-0.8
		C52.4,76.9,52.6,77,52.7,77.1z"/>
	<path class="st1" d="M119.4,96c2.4,10.7-9.9,46.3-9.9,46.3s-26.5-26.7-29-37.4c-2.4-10.7,4.3-21.4,15-23.9
		C106.2,78.6,116.9,85.3,119.4,96L119.4,96z"/>
	<path class="st1" d="M193,169.7c-3.3,10.5-31.9,35-31.9,35s-9.4-36.4-6.1-46.9c3.7-10.4,15.1-15.8,25.4-12.1
		C190.3,149.1,195.8,159.7,193,169.7L193,169.7z"/>
	<path class="st1" d="M236.2,238c-1.5,10.9-25.5,39.9-25.5,39.9s-15.5-34.3-14-45.2c1.5-10.9,11.5-18.6,22.4-17.1
		C230,217,237.7,227.1,236.2,238L236.2,238z"/>
	<path class="st1" d="M81.9,173.8c11-0.3,42.3-21.1,42.3-21.1s-32.5-19-43.5-18.7c-11,0.3-19.7,9.5-19.3,20.5
		C61.7,165.4,70.9,174.1,81.9,173.8L81.9,173.8z"/>
	<path class="st1" d="M133.4,253c10.4-3.6,34.1-32.8,34.1-32.8s-36.7-8.4-47.1-4.8c-10.4,3.6-15.9,15-12.2,25.4
		C111.8,251.1,123,256.5,133.4,253z"/>
	<path class="st1" d="M194,323.1c10.9-1.8,39.1-26.6,39.1-26.6s-34.7-14.5-45.6-12.7c-10.8,2-18,12.3-16,23.2
		C173.4,317.6,183.4,324.7,194,323.1z"/>
</g>
<ellipse class="st3" cx="525" cy="740.1" rx="525" ry="73"/>
<path class="st4" d="M230.8,16.1h528.4c10.9,0,19.8,8.9,19.8,19.8v644.4c0,10.9-8.9,19.8-19.8,19.8H230.8
	c-10.9,0-19.8-8.9-19.8-19.8V35.9C211,25,219.9,16.1,230.8,16.1z"/>
<rect x="260" y="85.1" class="st5" width="470" height="546"/>
<circle class="st6" cx="495" cy="667.1" r="20"/>
<circle class="st6" cx="495" cy="56.1" r="9.5"/>
<path class="st6" d="M495,47.1c5,0,9,4,9,9s-4,9-9,9s-9-4-9-9S490,47.1,495,47.1L495,47.1 M495,46.1c-5.5,0-10,4.5-10,10
	s4.5,10,10,10s10-4.5,10-10S500.5,46.1,495,46.1z"/>
<path class="st1" d="M495,322.2c10.9,0,19.7-8.9,19.7-19.8v-43.3c0-10.9-8.8-19.7-19.7-19.7c-10.9,0-19.7,8.8-19.7,19.7c0,0,0,0,0,0
	v43.3C475.3,313.4,484.1,322.2,495,322.2z M529.8,300.6c0,19.8-16.8,33.6-34.8,33.6s-34.8-13.8-34.8-33.6H449
	c0,22.4,17.7,41.2,39.4,44.1v23.6h13.1v-23.6c21.7-3.3,39.4-21.7,39.4-44.1H529.8z"/>
<path class="st6" d="M406.7,476c-0.2,0-0.4-0.1-0.5-0.2l-9.1-8.4v8.6H395v-18h2.1v8.6l9.2-8.5c0.1-0.1,0.3-0.2,0.5-0.2
	c0.5,0,0.9,0.4,0.9,0.8c0,0,0,0,0,0v16.3C407.6,475.6,407.3,476,406.7,476C406.8,476,406.8,476,406.7,476z"/>
<path class="st6" d="M406.7,458.4c0.2,0,0.4,0.1,0.4,0.3c0,0,0,0,0,0v16.3c0,0.2-0.2,0.4-0.3,0.4c0,0,0,0,0,0c-0.1,0-0.1,0-0.2-0.1
	l-8.3-7.6l-0.9-0.8l0.9-0.8l8.3-7.7C406.6,458.5,406.7,458.4,406.7,458.4 M396.6,458.4v17.1h-1.1v-17.1H396.6 M406.7,457.4
	c-0.3,0-0.6,0.1-0.9,0.3l-8.3,7.7v-7.5c0-0.3-0.2-0.5-0.5-0.5c0,0,0,0,0,0H395c-0.3,0-0.5,0.2-0.5,0.5c0,0,0,0,0,0V476
	c0,0.3,0.2,0.5,0.5,0.5c0,0,0,0,0,0h2c0.3,0,0.5-0.2,0.5-0.5l0,0v-7.4l8.3,7.7c0.2,0.2,0.5,0.3,0.9,0.3c0.8,0,1.4-0.6,1.4-1.3
	c0,0,0,0,0,0v-16.4C408.1,458.1,407.5,457.4,406.7,457.4C406.8,457.4,406.8,457.4,406.7,457.4L406.7,457.4z"/>
<path class="st6" d="M583.3,476c-0.2,0-0.4-0.1-0.6-0.2c-0.2-0.2-0.3-0.4-0.3-0.6v-16.3c0-0.5,0.4-0.9,0.9-0.9c0,0,0,0,0,0
	c0.2,0,0.4,0.1,0.5,0.2l9.2,8.4V458h2V476h-2v-8.7l-9.2,8.5C583.7,476,583.5,476,583.3,476z"/>
<path class="st6" d="M583.3,458.4c0.1,0,0.2,0,0.2,0.1l8.3,7.6l0.9,0.8l-0.9,0.8l-8.3,7.7c-0.1,0.1-0.1,0.1-0.2,0.1
	c-0.2,0-0.4-0.2-0.4-0.4v-16.3C582.9,458.6,583.1,458.4,583.3,458.4C583.3,458.4,583.3,458.4,583.3,458.4 M594.5,458.4v17.1h-1.1
	v-17.1H594.5 M583.3,457.4c-0.8,0-1.4,0.6-1.4,1.3c0,0,0,0,0,0v16.3c0,0.8,0.6,1.4,1.3,1.4c0,0,0,0,0,0c0.3,0,0.6-0.1,0.9-0.3
	l8.3-7.7v7.5c0,0.3,0.2,0.5,0.5,0.5l0,0h2c0.3,0,0.5-0.2,0.5-0.5c0,0,0,0,0,0v-18c0-0.3-0.2-0.5-0.5-0.5c0,0,0,0,0,0h-2
	c-0.3,0-0.5,0.2-0.5,0.5c0,0,0,0,0,0v7.5l-8.3-7.7C583.9,457.5,583.6,457.4,583.3,457.4z"/>
<path class="st6" d="M498.4,476.3c-0.9,0-1.5-0.7-1.5-1.5v-14.9c0-0.9,0.7-1.5,1.5-1.5h4.1c0.9,0,1.5,0.7,1.5,1.5v14.9
	c0,0.9-0.7,1.5-1.5,1.5H498.4z M487.5,476.3c-0.9,0-1.5-0.7-1.5-1.5v-14.9c0-0.9,0.7-1.5,1.5-1.5h4.1c0.9,0,1.5,0.7,1.5,1.5v14.9
	c0,0.9-0.7,1.5-1.5,1.5H487.5z"/>
<path class="st6" d="M502.5,458.8c0.6,0,1,0.4,1,1v14.9c0,0.6-0.4,1-1,1h-4.1c-0.6,0-1-0.4-1-1v-14.9c0-0.6,0.4-1,1-1L502.5,458.8
	 M491.6,458.8c0.6,0,1,0.4,1,1v14.9c0,0.6-0.4,1-1,1h-4.1c-0.6,0-1-0.4-1-1v-14.9c0-0.6,0.4-1,1-1H491.6 M502.5,457.8h-4.1
	c-1.1,0-2,0.9-2,2v14.9c0,1.1,0.9,2,2,2h4.1c1.1,0,2-0.9,2-2v-14.9C504.5,458.7,503.6,457.8,502.5,457.8z M491.6,457.8h-4.1
	c-1.1,0-2,0.9-2,2v14.9c0,1.1,0.9,2,2,2h4.1c1.1,0,2-0.9,2-2v-14.9C493.6,458.7,492.7,457.8,491.6,457.8z"/>
<rect x="375" y="433.6" class="st7" width="240" height="2.7"/>
<path class="st6" d="M449.1,440.8c-3.2,0-5.8-2.6-5.8-5.8s2.6-5.8,5.8-5.8c3.2,0,5.8,2.6,5.8,5.8c0,0,0,0,0,0
	C454.9,438.2,452.3,440.8,449.1,440.8z"/>
<path class="st6" d="M449.1,429.6c2.9,0,5.3,2.4,5.3,5.3c0,2.9-2.4,5.3-5.3,5.3c-2.9,0-5.3-2.4-5.3-5.3c0,0,0,0,0,0
	C443.8,432,446.2,429.6,449.1,429.6 M449.1,428.6c-3.5,0-6.3,2.8-6.3,6.3c0,3.5,2.8,6.3,6.3,6.3c3.5,0,6.3-2.8,6.3-6.3c0,0,0,0,0,0
	C455.4,431.5,452.6,428.6,449.1,428.6C449.1,428.6,449.1,428.6,449.1,428.6z"/>
<rect x="375.5" y="434.1" class="st6" width="73.1" height="1.7"/>
<path class="st6" d="M448.1,434.6v0.7H376v-0.7H448.1 M449.1,433.6H375v2.7h74.1V433.6z"/>
<path class="st8" d="M864.8,588.4c-37.6,0-68.1,42.6-68.1,95.1s30.5,95.1,68.1,95.1s68.1-42.6,68.1-95.1S902.4,588.4,864.8,588.4z
	 M868.3,765.6c-33.1,0-59.9-37.3-59.9-83.3s26.8-83.3,59.9-83.3s59.9,37.3,59.9,83.3S901.4,765.6,868.3,765.6z"/>
<path class="st4" d="M873,475.6l-4.7,79.9H776c-8-0.1-15.8,2.9-21.7,8.2c-5.3,4.9-8.7,11.6-9.3,18.8v119.8h11.7l-0.1-8.2H873v-11.8
	H756.5l-1-96.1c0-1.2,0.1-2.4,0.4-3.6c0.7-3.2,2.8-8.9,8.2-12.2c2.4-1.4,5.1-2,7.8-2h104.6l5.9-83.4h35.2v-9.5H873z"/>
<path class="st9" d="M873,475.6l-4.7,79.9H776c-8-0.1-15.8,2.9-21.7,8.2c-5.3,4.9-8.7,11.6-9.3,18.8v119.8h11.7l-0.1-8.2H873v-11.8
	H756.5l-1-96.1c0-1.2,0.1-2.4,0.4-3.6c0.7-3.2,2.8-8.9,8.2-12.2c2.4-1.4,5.1-2,7.8-2h104.6l5.9-83.4h35.2v-9.5H873z"/>
<polygon class="st8" points="875.9,518.5 964.6,515.5 959.9,638.9 747.3,641.2 752.6,591.3 868.3,610.7 "/>
<rect x="838.9" y="682.3" class="st4" width="117.5" height="11.8"/>
<path class="st4" d="M876.5,673.4v-34.6h-9.4v34.6c-3.5,2.6-5.9,8-5.9,14.2c0,8.8,4.7,15.9,10.6,15.9s10.6-7.1,10.6-15.9
	C882.4,681.4,880,676,876.5,673.4z"/>
<path class="st4" d="M830.4,702.8c4-3.7,10.2-3.9,14.4-0.5l0,0c0,0,14.1,9.4,1.2,49.3c0,0-9.4,5.9-4.7-12.9s2.3-30.5-2.3-30.5
	s-10.6,12.9-10.6,12.9l-8.2-3.5C820.1,717.6,823.8,708.9,830.4,702.8z"/>
<path class="st4" d="M742.3,702.8c4-3.7,10.2-4,14.4-0.5l0,0c0,0,14.1,9.4,1.2,49.3c0,0-9.4,5.9-4.7-12.9s2.3-30.5-2.3-30.5
	s-10.6,12.9-10.6,12.9l-8.2-3.5C732,717.6,735.8,708.9,742.3,702.8z"/>
<ellipse class="st8" cx="743.2" cy="748.1" rx="26.4" ry="35.2"/>
<ellipse class="st8" cx="831.3" cy="748.1" rx="26.4" ry="35.2"/>
<linearGradient id="SVGID_1_" gradientUnits="userSpaceOnUse" x1="-447.9128" y1="10.3464" x2="-447.9128" y2="385.9734" gradientTransform="matrix(-1 0 0 -1 397.18 769.56)">
	<stop  offset="0" style="stop-color:#808080;stop-opacity:0.25"/>
	<stop  offset="0.54" style="stop-color:#808080;stop-opacity:0.12"/>
	<stop  offset="1" style="stop-color:#808080;stop-opacity:0.1"/>
</linearGradient>
<path class="st10" d="M673.9,755.6c8.6,5.7,21.6,3,21.6,3s19.6-9.3,25.5-9.3s19.9-5.7,19.9-5.7l-0.5-3.9l-1.4-11.7
	c8.9,7,18.9,4.6,23.8,4c5.3-0.5,33.3-17.2,36-18.3c1-0.6,1.9-1.5,2.5-2.5l0,0c1.8-2.8,3.4-5.6,4.8-8.7l0,0c1.8-1.5,3-2.8,3-3.1
	s0.7-2.3,1.7-4.6c4-0.7,7.4-2.2,8.5-3.1c0.4-0.4,0.8-0.8,1.2-1.2c1.1-1.4,1.6-3.1,1.6-4.8c0,0,27.4-27.6,23.8-39.1
	s8.8-11.8,8.8-11.8s19.1-8.2,21.7-13.1c1.6-3,16-9.7,26.7-14.3l1.3-0.6c4.2,9.2,25.4,2.1,29.6-1.8c4.4-4.1,17.4-6,17.4-6
	s0.6-53.6,4.7-60.5c2-3.3,2.4-13.8,2.4-24.1v-1.1c5.8-1.1,19.6-3.8,26-4.4c4.1-0.4,8.3-2.9,11.6-5.4l0.4,0.5
	c1.1,0.5,2.3,0.7,3.5,0.6c1.1,0.1,2.1-0.1,3.1-0.6c2.5-1.4,11.6-4.1,14.9-5.5s-0.6-11.2-3-13.1s-4.2-4.4-2.8-5.5s-3.3-3.8-6.1-4.4
	s-11.1-4.4-11.1-4.4s-3-6.3-8-6.3s-11.6-4.9-11.6-4.9c-0.3-2.2-5.5-2.5-5.5-2.5s-19.9-15.3-23.2-13.4s-12.4-3-12.4-3
	s-11.2,1.3-13.8-0.8l0,0c0-0.7-0.3-1.3-0.7-1.9c-0.6-1.9-3.5-4.4-6.3-6.5c0.2-1.3,0.3-2.6,0.3-4c0-0.6,0-1.1-0.1-1.7v-0.3l0.4-3.9
	c0-1.3,0.4-2.5,1-3.6c0.5-0.7,1.2-1.3,1.7-2c0.1-0.2,0.2-0.3,0.3-0.5c0,0,0.1-0.1,0.1-0.1c0.1-0.1,0.1-0.3,0.2-0.4l0.1-0.1
	c0.2-0.4,0.3-0.8,0.4-1.2c0,0,0-0.1,0-0.1s0.1-0.4,0.1-0.5c0,0,0-0.1,0-0.1c0.1-1.6-0.1-3.2-0.6-4.7c-0.8-2.6-2.1-5.1-2.3-7.8
	c0.1-1.3,0-2.7-0.1-4c-0.7-3-3.7-4.9-6.7-6.1c-4.1-1.7-6.2-3.6-9.4-6.1c-2.8-2.2-7.4-1.1-10.9-0.9c-8,0.5-15.9,2.9-23.5,5.4
	c-2.9,1-5.9,2.1-8.2,4.1c-1.5,1.3-2.6,3.1-3,5.1l0,0c-0.1,0.5-0.1,0.9-0.1,1.4c0,0,0,0.1,0,0.1c0,0.2,0,0.4,0.1,0.5
	c0,0.1,0,0.1,0,0.2c0,0.2,0.1,0.4,0.2,0.6l0,0c0.3,1,0.9,1.9,1.3,2.9c0.1,0.2,0.1,0.4,0.2,0.7v0.1c0,0.2,0.1,0.4,0.1,0.7l0,0
	c0.3,2.5-0.6,5.1-1,7.6c-0.1,0.4-0.1,0.7-0.1,1.1l0,0l0,0c-0.1,1.5,0,2.9,0.4,4.4l0,0c0,0.2,0.1,0.4,0.2,0.5c0,0.1,0,0.2,0.1,0.2
	c0,0.1,0.1,0.3,0.2,0.4s0.1,0.2,0.1,0.3s0.1,0.3,0.2,0.4l0.2,0.3l0.2,0.3c0.1,0.1,0.1,0.2,0.2,0.3s0.1,0.2,0.2,0.3s0.2,0.2,0.3,0.3
	l0.2,0.3l0.3,0.3c0.1,0.1,0.1,0.2,0.2,0.2c0.1,0.1,0.2,0.2,0.3,0.3l0.2,0.2c0.1,0.1,0.3,0.2,0.4,0.3l0.2,0.1
	c0.2,0.1,0.5,0.3,0.7,0.4c1.6,0.7,3.6,1,4.5,2.4c0.2,0.3,0.4,0.7,0.5,1.1c0,0.1,0,0.2,0,0.3v0.2c0,0.8,0.1,1.6,0.1,2.4
	c0,0.4,0,0.9,0.1,1.3c0,0.3,0.1,0.6,0.3,0.9c1.1,5.5,4.1,10.5,8.4,14.1c0.1,0.4,0.2,0.9,0.3,1.5c-2.4,1.8-5.1,3.3-8,4.2
	c-6.6,2-16,10.9-16,10.9s-4.7,33.6-5.8,37.8s-2,20-2,20s-1.1,6.6-2.8,9.8c-1.2,2.3-1,12.3,2.3,18.3c-0.5,1.2-1.2,2.3-2,3.3
	c-6.6,7.7-26.5,7.4-33.2,7.4c-6.1,0-8,3.7-8.3,4.3c-12.2,3.5-51.5,14.7-56.2,16.7c-5.5,2.4-8.6,26.3-8.6,26.3s-11.6,39.7-11.1,44.9
	s-4,19.7-4,19.7s0,16.4-1.9,17.5l0,0c-1.9,0.8-1.7,8.8-1.7,8.8s1.4,0.4,3.6,1c-0.6,4-2.8,9.6-4.5,13.6c-0.9-1.1-1.7-1.5-2.2-0.3
	c-1.4,3.5-22.1,28.1-27.4,28.1c-2.5,0-6.6,2-9.4,4.8C670.7,748.7,669.4,752.6,673.9,755.6z M769,613.1c23.5,2.2,48.7-1.7,48.7-1.7
	s-1.9,6.9-3.6,9.6s-6.4,18.3-6.4,21.6s-7.5,31.5-9.7,32.8c-1.1,0.9-1.9,2.1-2.4,3.5c-0.6,1.4-1.1,2.8-1.5,4.2c0,0.7,0.1,1.4,0.2,2
	c-1.7,1.5-3.4,3.1-5,4.5l0,0c0,0-9.9,5.5-13.2,8.5s-18.8,6.7-18.8,6.7c-3.8,1.7-7.5,3.6-11.1,5.7c-4.8,2.9-9.6,6.6-10.9,10.2
	c0.5-6.1,1.4-13.5,2-18.2h0.9c7.8-0.5,6.6-7.9,6.2-9.7c-0.1-0.3-0.1-0.4-0.1-0.4c5.5-6,18-50.9,16.3-55.8s1.4-9.3,2-9.3
	s1.5-5.5,0.2-8.5S769,613.1,769,613.1z M959.1,492.4l-1.5,0.4c0-0.2,0-0.3,0-0.3S958.2,492.5,959.1,492.4L959.1,492.4z M878.8,451.1
	c-0.2,0.3-0.5,0.5-0.7,0.8l-0.3,0.3c0-0.5,0-1,0-1.5L878.8,451.1z M851,504.2l0.1,1.5c0,0-0.2,0.9-0.4,2.5L851,504.2z M978.2,488.9
	l-4.8,0.8c0.7-0.3,1.4-0.5,2-0.8c0.5-0.2,1-0.4,1.5-0.4c0.6,0.1,1.2,0.2,1.8,0.4C978.5,488.9,978.3,488.9,978.2,488.9L978.2,488.9z"
	/>
<path class="st11" d="M815,686.4c0,0-5.6,11.5-5.3,12.3s-11.9,10.6-11.9,10.6l-13.3-9.5l1.3-6.5c0,0,14.9-13.5,16-15
	S815,686.4,815,686.4z"/>
<path class="st12" d="M739.1,725.3c9.2,9,20.1,6.2,25.3,5.7s32.7-17.1,35.3-18.2c1-0.6,1.8-1.5,2.4-2.5l0,0c1.8-2.7,3.3-5.6,4.7-8.6
	c-0.2,0-9.2,2.6-11.5,0c0,0-3.8-4.7-4.6-4.7s-0.1-8.2-0.1-8.2s-9.7,5.5-13,8.4s-18.5,6.7-18.5,6.7c-3.8,1.6-7.4,3.5-10.9,5.6
	C741,714,733.8,720.2,739.1,725.3z"/>
<path class="st9" d="M739.1,725.3c9.2,9,20.1,6.2,25.3,5.7s32.7-17.1,35.3-18.2c1-0.6,1.8-1.5,2.4-2.5c-3.2-1.9-24.2,11.4-30.1,13.9
	s-20.7,1.1-29.2-2.4c-4.2-1.8,0.1-7.2,5.4-12.2C741,714,733.8,720.2,739.1,725.3z"/>
<path class="st11" d="M740.2,697.1c0,0-3.9,29-2.9,32.8s-24.3-13-24.3-13s8.8-18.2,6.2-22.4S740.2,697.1,740.2,697.1z"/>
<path class="st13" d="M716,697.6c0,0,15.7,4.6,24.4,4.1c7.6-0.5,6.5-7.8,6.1-9.6c-0.1-0.3-0.1-0.4-0.1-0.4c5.4-6,17.7-50.5,16-55.4
	s1.4-9.2,2-9.2s1.5-5.4,0.2-8.4s6-5.7,6-5.7c23.1,2.2,47.8-1.7,47.8-1.7s-1.9,6.8-3.5,9.5s-6.2,18.2-6.2,21.5s-7.3,31.2-9.5,32.6
	c-1.1,0.9-1.9,2.1-2.4,3.5c-0.6,1.3-1,2.7-1.4,4.1c0.8,18.2,21.4,11.1,24.4,8.7c0.4-0.4,0.8-0.7,1.2-1.2c1.1-1.4,1.6-3.1,1.6-4.8
	c0,0,26.9-27.4,23.3-38.8s8.7-11.7,8.7-11.7s18.7-8.1,21.3-13c1.6-3,15.7-9.6,26.2-14.2c6.6-2.9,11.9-5,11.9-5l-4.4-15.9l-3.5-12.4
	l-6.5-2.5l-20.9-7.9l-37.5-5.2l-3.4,0.5l-36.4,4.7c0,0-53.2,15.2-58.6,17.6s-8.4,26.2-8.4,26.2s-11.4,39.4-10.9,44.5
	s-3.8,19.5-3.8,19.5s0,16.2-1.8,17.3h0C715.7,689.8,716,697.6,716,697.6z"/>
<path class="st9" d="M770.6,612.9c23.1,2.2,47.8-1.7,47.8-1.7c1.6-5.1,24.5-19.3,24.5-19.3C824.1,587.4,770.6,612.9,770.6,612.9z"/>
<path class="st14" d="M795.3,682.4c0.8,18.2,21.4,11.1,24.4,8.7c0.4-0.4,0.8-0.7,1.2-1.2c-7.2,2.7-20,4.7-24.2-11.7
	C796.1,679.6,795.7,681,795.3,682.4z"/>
<path class="st14" d="M716,697.6c0,0,15.7,4.6,24.4,4.1c7.6-0.5,6.5-7.8,6.1-9.6c-8-0.3-21.7-1-28.8-3.2h0
	C715.7,689.8,716,697.6,716,697.6z"/>
<path class="st9" d="M795.3,682.4c0.8,18.2,21.4,11.1,24.4,8.7c0.4-0.4,0.8-0.7,1.2-1.2c-7.2,2.7-20,4.7-24.2-11.7
	C796.1,679.6,795.7,681,795.3,682.4z"/>
<path class="st9" d="M716,697.6c0,0,15.7,4.6,24.4,4.1c7.6-0.5,6.5-7.8,6.1-9.6c-8-0.3-21.7-1-28.8-3.2h0
	C715.7,689.8,716,697.6,716,697.6z"/>
<path class="st12" d="M677.2,754.4c8.4,5.7,21.2,3,21.2,3s19.3-9.2,25-9.2s19.5-5.7,19.5-5.7l-0.5-3.8l-2.3-18.4
	c0,0-21.1-0.5-22-2.5c0,0-3.8-9.3-5.2-5.9s-21.7,27.9-26.9,27.9c-2.5,0-6.5,2-9.2,4.8C674,747.6,672.8,751.4,677.2,754.4z"/>
<path class="st9" d="M750.2,593.9c0,0,17.6,11.1,12.8,13.6S750.2,593.9,750.2,593.9z"/>
<path class="st9" d="M742.9,615.4c0,0,15.2,14.4,9.5,14.8S742.9,615.4,742.9,615.4z"/>
<path class="st9" d="M726.6,661.3c0,0,7.7,14.5,4.8,17S726.6,661.3,726.6,661.3z"/>
<path class="st9" d="M811.6,675.9c-2.7,2.7,25.8-9,19.3-9.5S811.6,675.9,811.6,675.9z"/>
<path class="st11" d="M868.6,472.3l0.9-0.1c3.4-0.5,15.6-2.4,26.6-4.8c2.7-0.6,5.3-1.2,7.7-1.8c8.4-2.2,14-4.6,10.5-6.5
	c-4.8-2.6-7.3-7.3-8.6-11.3c-0.1-0.4-0.2-0.8-0.3-1.2c-0.6-2-1-4.1-1.1-6.3c0,0-30.7-10.9-24.7,0c2.9,5.3,1,9.7-1.8,12.7
	c-1.9,2-4.1,3.7-6.6,4.9L868.6,472.3z"/>
<path class="st9" d="M901.4,463.9c0,0-11,7.9-22.2,1.4s-25.9,57.6-25.9,57.6l-15.2,37.5c0,0-9.8,8.2,2.4,11.7s39.5-3.5,46.3,6.8
	s20,12,21.3,12s6.5-38.8,6.5-38.8l1.3-56.2L901.4,463.9z"/>
<path class="st15" d="M841.1,569.8c12.3,3.5,39.4-3.5,46.3,6.8c2.9,4.2,7,7.5,11.7,9.4c3,1.4,6.3,2.2,9.6,2.5c0.2,0,0.4-0.7,0.7-1.9
	c1.9-7.9,5.8-36.9,5.8-36.9l1.3-56.2l-12.9-27.9l-1.7-3.8c-1.7,1.2-3.6,2.1-5.6,2.7c-5.5,2-11.5,1.5-16.6-1.4
	c-3.3-1.9-6.9,2.3-10.3,9.1c-8.3,16.5-15.6,48.5-15.6,48.5l-15.2,37.5c-0.3,0.3-0.7,0.7-1,1C835.5,561.4,831.5,567,841.1,569.8z"/>
<path class="st9" d="M899.5,571.7c-0.6,4.7-0.7,9.5-0.4,14.3c0.4,6.8,1.3,13.5,2.5,20.2c0.1,0.4,0.2,0.8,0.3,1.2
	c6.6-2.9,11.9-5,11.9-5l-4.4-15.8c1.9-7.9,5.8-36.9,5.8-36.9l1.3-56.2l-12.9-27.9c8.4-2.2,14-4.6,10.5-6.5c-5.2-2.8-7.7-8.2-9-12.5
	c-2.2,3.1-4.8,5.9-7.7,8.3l-0.2,0.1l-1,9.5l-0.3,2.9l-0.6,6c0,0,3,71.4,5.2,75.5s1.1,11.9-0.8,21.2
	C899.7,570.6,899.6,571.1,899.5,571.7z"/>
<path class="st1" d="M900.9,569c-1.9,9.2-0.3,24.4,1.9,36.1s25.2,4.1,29.6,0s17.1-6,17.1-6s0.5-53.2,4.6-60
	c1.9-3.2,2.4-13.7,2.3-23.9c0-9.1-0.5-17.9-0.7-20.9c0-0.7-0.1-1.1-0.1-1.1s17.7-29.9,17.4-32s-5.4-2.5-5.4-2.5
	s-19.5-15.2-22.8-13.3s-12.2-3-12.2-3s-11.3,1.3-13.7-0.9c-0.3-0.2-0.4-0.6-0.4-1c0.3-3.5-11.6-10.9-11.9-11.1c10,9-6.2,22.8-8,24.3
	l-0.2,0.1l-1.9,18.4c0,0,3,71.4,5.2,75.5S902.8,559.7,900.9,569z"/>
<circle class="st14" cx="901.9" cy="491.4" r="1.4"/>
<path class="st9" d="M899.2,454.8l8.2,8l12.1-20.2c-0.3-0.2-0.4-0.6-0.4-1c0.3-3.5-11.6-10.9-11.9-11.1
	C917.1,439.5,901,453.3,899.2,454.8z"/>
<circle class="st9" cx="904.6" cy="534.8" r="1.4"/>
<circle class="st14" cx="904.6" cy="534.3" r="1.4"/>
<path class="st1" d="M898.6,453.8l8.3,8l12.1-20.2c-0.3-0.2-0.4-0.6-0.4-1c0.3-3.5-11.6-10.9-11.9-11.1
	C916.6,438.4,900.4,452.2,898.6,453.8z"/>
<path class="st4" d="M907.4,531l-15.5-0.4c-0.9,0-1.7-0.8-1.7-1.7l0.8-36.5c0-0.9,0.8-1.7,1.7-1.7l15.5,0.4c0.9,0,1.7,0.8,1.7,1.7
	l-0.8,36.5C909.1,530.2,908.3,531,907.4,531z"/>
<circle class="st6" cx="900.5" cy="502.6" r="3"/>
<path class="st9" d="M798.3,566.6c6.8,3,51.3-4.9,57.8-6.8s16-16.6,11.4-27.2s1.6-20.9,1.6-20.9s9.8-20.9,11.9-25s6.7-15.9,7.3-17.9
	c0.1-0.5-0.1-0.9-0.4-1.3c-1.8-2.7-8.6-7.4-8.6-7.4c-1.9,0.7-2.2-4.8-2.1-8.8c0-2.3,0.2-4.1,0.2-4.1s-0.9,0.9-2.4,2.2
	c-0.5,0.5-1.2,1-1.8,1.5c-2.6,2-5.5,3.6-8.6,4.7c-6.5,1.9-15.7,10.8-15.7,10.8l2.7,41.7c0,0-6.2,39.2-12.8,46.8s-26.1,7.3-32.6,7.3
	S798.3,566.6,798.3,566.6z"/>
<path class="st1" d="M797.7,564.9c6.8,3,51.3-4.9,57.8-6.8s16-16.6,11.4-27.2s1.6-20.9,1.6-20.9s9.8-20.9,12-25s6.7-15.9,7.3-17.9
	c0-0.5-0.1-0.9-0.4-1.3c-1.8-2.7-8.6-7.4-8.6-7.4c-1.9,0.7-2.2-4.8-2.1-8.8c0-2.3,0.2-4.1,0.2-4.1s-0.9,0.9-2.4,2.2
	c-0.5,0.5-1.2,1-1.8,1.5c-2.6,2-5.5,3.6-8.6,4.7c-6.5,1.9-15.8,10.8-15.8,10.8l2.7,41.7c0,0-6.3,39.2-12.8,46.8s-26.1,7.4-32.6,7.4
	S797.7,564.9,797.7,564.9z"/>
<path class="st9" d="M871.6,446.7c0,0,0.3,1.4,0.7,3.6c1.5,7.5,5,23.7,7.5,23.1c1.8-0.5,4.8-3.6,7.2-6.4c-1.8-2.7-8.6-7.4-8.6-7.4
	c-1.9,0.7-2.2-4.8-2.1-8.8l-2.2-1.9L871.6,446.7z"/>
<path class="st1" d="M872.1,445.6c0,0,0.3,1.4,0.7,3.6c1.5,7.5,4.9,23.7,7.5,23.1c1.8-0.5,4.8-3.7,7.2-6.4c-1.8-2.7-8.6-7.4-8.6-7.4
	c-1.9,0.7-2.2-4.8-2.1-8.8l-2.2-1.9L872.1,445.6z"/>
<path class="st11" d="M854.7,525.6c0,0,13.6-2.7,17.4-8.7s29.7-11.1,26.5-4.9s-26.5,26.7-26.5,26.7L862,553.1l-13.5-3.4l-5.7-11.1
	L854.7,525.6z"/>
<path class="st9" d="M886.8,541c0,0-13.1,4.9-15.1,11.4S886.8,541,886.8,541z"/>
<path class="st9" d="M894.9,548.6c0,0,1.2,6.8-15.3,6.2L894.9,548.6z"/>
<path class="st9" d="M966,461.7l6-0.5c0,0,6.5,4.9,11.4,4.9s7.9,6.3,7.9,6.3s8.1,3.8,10.9,4.3s7.3,3.3,6,4.3s0.3,3.5,2.7,5.4
	s6.3,11.7,3,13s-12.2,4.1-14.7,5.4s-5.4,0-5.4,0s-14.4-18.7-21.7-15.2s-17.4,3.5-17.4,3.5l-7.9-16.6L966,461.7z"/>
<path class="st1" d="M841.1,551c1.1,1.9,2.9,3.2,5.1,3.5c5.3,0.6,10.7,0.1,15.8-1.5c0,0-27.3-8.7-1-29.8h-7.1l-2.3-0.9l1.1-5.6
	l1.5-50.7l-5.7-1.4c0,0-4.6,33.4-5.7,37.5s-1.9,19.8-1.9,19.8s-1.1,6.5-2.7,9.8C836.9,534.2,837.3,545.3,841.1,551z"/>
<path class="st9" d="M842.2,551c1.1,1.9,2.9,3.2,5.1,3.5c5.3,0.6,10.7,0.1,15.8-1.5c0,0-27.3-8.7-1-29.8H855l-2.3-0.9
	C848.8,529.3,842.7,541.4,842.2,551z"/>
<path class="st16" d="M841.1,551c1.1,1.9,2.9,3.2,5.1,3.5c5.3,0.6,10.7,0.1,15.8-1.5c0,0-27.3-8.7-1-29.8h-7.1l-2.3-0.9
	C847.7,529.3,841.6,541.4,841.1,551z"/>
<path class="st1" d="M841.1,551c1.1,1.9,2.9,3.2,5.1,3.5c5.3,0.6,10.7,0.1,15.8-1.5c0,0-27.3-8.7-1-29.8h-7.1l-2.3-0.9
	C847.7,529.3,841.6,541.4,841.1,551z"/>
<path class="st9" d="M877.6,453c9.5,4.3,20.7,2.2,28-5.3c-0.1-0.4-0.2-0.8-0.3-1.2c-0.6-2-1-4.1-1.1-6.3c0,0-30.7-10.9-24.7,0
	C882.4,445.6,880.4,450,877.6,453z"/>
<path class="st11" d="M863.1,429.4v0.2c0,0.8,0.1,1.6,0.1,2.4s0.2,1.5,0.3,2.2c2.7,13.4,15.7,22.1,29.1,19.4
	c8.6-1.7,15.7-7.9,18.5-16.2c0.2-0.5,0.3-1,0.4-1.5c0.6-2.1,0.9-4.4,0.9-6.6c0-0.6,0-1.1-0.1-1.7c-0.9-13.6-12.6-23.9-26.2-23.1
	C873.2,405.5,863.1,416.3,863.1,429.4L863.1,429.4z"/>
<path class="st9" d="M863.1,429.7c0.1,0.8,0.2,1.6,0.1,2.4c0,0.4,0,0.9,0.1,1.3c0.1,0.3,0.1,0.6,0.3,0.9c1,2.4,4.3,3.9,6.4,2.4
	c0.8-0.7,1.5-1.5,1.9-2.5c2.3-4.2,5.5-9.1,10.5-9.2c2.1,0,4.1,0.9,6.2,1.4s4.5,0.6,6-0.8c1.2-1.1,1.7-2.9,3.3-3.3s3,1.1,3.8,2.5
	s1.3,3.1,2.8,3.8c0.7,0.3,1.4,0.4,2.1,0.8c3,1.6,1.6,7.3,4.7,8.2c0.1,0,0.2,0.1,0.3,0.1l0.2-1.5c0.3-2.8,0.5-5.5,0.8-8.3
	c-0.9-13.6-12.6-23.9-26.2-23.1c-13.1,0.8-23.2,11.7-23.1,24.8L863.1,429.7z"/>
<path class="st4" d="M907,392.6c2.9,1.2,5.9,3.1,6.6,6.1c0.2,1.3,0.2,2.7,0.1,4c0.1,2.7,1.4,5.2,2.2,7.7s1.1,5.6-0.5,7.7
	c-0.5,0.7-1.2,1.3-1.6,2c-0.6,1.1-0.9,2.3-1,3.6l-1.3,13.4c-3.5-0.6-1.9-6.6-5-8.3c-0.6-0.4-1.4-0.5-2.1-0.8c-1.5-0.7-2-2.4-2.8-3.8
	s-2.2-2.9-3.8-2.5s-2.1,2.2-3.3,3.3c-1.5,1.4-4,1.3-6,0.8s-4.1-1.4-6.2-1.4c-5,0.1-8.2,5-10.5,9.2c-0.4,1-1.1,1.8-1.9,2.5
	c-2.4,1.7-6.3-0.4-6.7-3.3c-0.2-1.6,0.3-3.4-0.7-4.7s-2.9-1.6-4.5-2.4c-4-1.8-5.2-6.8-4.5-10.9c0.5-3,1.7-6.1,0.7-9
	c-0.3-1-0.9-1.9-1.2-2.9c-0.9-2.8,0.5-5.9,2.8-7.9s5.2-3.1,8.1-4c7.4-2.5,15.2-4.9,23.1-5.4c3.5-0.2,8-1.3,10.7,0.9
	C901,389,903,390.9,907,392.6z"/>
<circle class="st9" cx="900.6" cy="470" r="1.4"/>
<circle class="st14" cx="900.6" cy="469.4" r="1.4"/>
<circle class="st9" cx="909.3" cy="555.2" r="1.4"/>
<circle class="st14" cx="909.3" cy="554.7" r="1.4"/>
<circle class="st9" cx="904.6" cy="577.7" r="1.4"/>
<circle class="st14" cx="904.6" cy="577.2" r="1.4"/>
<path class="st9" d="M858,491.4c0,0-3,20.3,0,23.8S858,491.4,858,491.4z"/>
<path class="st9" d="M946.8,529c0,0,5.7,12.3,0,24.1s-9.2,16.6-7.3,24.1S946.8,529,946.8,529z"/>
<path class="st9" d="M677.2,754.4c8.4,5.7,21.2,3,21.2,3s19.3-9.2,25-9.2s19.5-5.7,19.5-5.7l-0.5-3.8c-5.6,1.1-18.4,3.7-19.9,4.9
	c-1.9,1.6-25.2,9.5-25.2,9.5s-15.9-2-20.3-8.5C674,747.6,672.8,751.4,677.2,754.4z"/>
<g class="st17">
	<path d="M913.7,400.4c0-0.3,0-0.6,0-0.9c0,0.3,0,0.7,0,1C913.7,400.5,913.7,400.5,913.7,400.4z"/>
	<path d="M858.2,423.6c1.6,0.7,3.5,1,4.5,2.4s0.4,3.1,0.7,4.7c0.4,2.9,4.3,5,6.7,3.3c0.8-0.7,1.5-1.5,1.9-2.5
		c2.3-4.2,5.5-9.1,10.5-9.2c2.1,0,4.1,0.9,6.2,1.4s4.5,0.6,6-0.8c1.2-1.1,1.7-2.9,3.3-3.3s3,1.1,3.8,2.5s1.3,3.1,2.8,3.8
		c0.7,0.3,1.4,0.4,2.1,0.8c3,1.7,1.5,7.6,5,8.3c0.4-4.4,0.9-8.9,1.3-13.4c0-1.3,0.4-2.5,1-3.6c0.5-0.7,1.1-1.3,1.6-2
		c0.6-0.8,1-1.8,1.1-2.9c0.3,1.7-0.1,3.5-1.1,5c-0.5,0.7-1.2,1.3-1.6,2c-0.6,1.1-0.9,2.3-1,3.6c-0.5,4.5-0.9,8.9-1.3,13.4
		c-3.5-0.6-1.9-6.6-5-8.3c-0.6-0.4-1.4-0.5-2.1-0.8c-1.5-0.7-2-2.4-2.8-3.8s-2.2-2.9-3.8-2.5s-2.1,2.2-3.3,3.3c-1.5,1.4-4,1.3-6,0.8
		s-4.1-1.4-6.2-1.4c-5,0.1-8.2,5-10.5,9.2c-0.4,1-1.1,1.8-1.9,2.5c-2.4,1.7-6.3-0.4-6.7-3.3c-0.2-1.6,0.3-3.4-0.7-4.7
		s-2.9-1.6-4.5-2.4c-3.6-1.7-5-6-4.7-9.9C853.8,419.1,855.3,422.2,858.2,423.6z"/>
	<path d="M853.2,400.7c0.3,1,0.9,1.9,1.2,2.9c0.4,1.2,0.5,2.4,0.3,3.6c-0.1-0.5-0.2-0.9-0.3-1.4c-0.3-1-0.9-1.9-1.2-2.9
		c-0.3-0.9-0.3-1.9-0.2-2.8C853,400.3,853.1,400.6,853.2,400.7z"/>
</g>
<path class="st9" d="M932.9,521.4c6.2-1.4,20.9-5.7,20.9-5.7l2.6-0.5c0-9.1-0.5-17.9-0.7-20.9h-0.1c0,0-12.5,4.1-15.5,6.3
	s-12.2,1.6-12.2,1.6s-14.4,0.8-26.3,14.1S926.7,522.8,932.9,521.4z"/>
<path class="st11" d="M993.9,497.2c1.8,0.8,2.6,3,1.8,4.8c-0.2,0.5-0.6,0.9-1,1.3c-3.3,2.7-8.1,6-12.7,6.5c-7.7,0.8-26.2,4.5-28,4.9
	l-0.3,0.1c-1.5,0.5-14.9,4.4-20.8,5.6c-6.2,1.4-43.2,8.2-31.2-5.1c11-12.2,24.1-13.9,26.1-14.1c0.2,0,0.3,0,0.5,0
	c1.4,0.1,9.3,0.3,12-1.6c1.4-0.9,2.9-1.6,4.5-2.2c5.9-2.4,12.1-4.2,18.4-5.3l12.8-2.2c0.7-0.1,1.5,0,2.2,0.3L993.9,497.2z"/>
<path class="st1" d="M967.1,461.7l6-0.5c0,0,6.5,4.9,11.4,4.9s7.9,6.3,7.9,6.3s8.2,3.8,10.9,4.3s7.3,3.3,6,4.3s0.3,3.5,2.7,5.4
	s6.2,11.7,3,13s-12.2,4.1-14.7,5.4s-5.4,0-5.4,0s-14.4-18.7-21.7-15.2s-17.4,3.5-17.4,3.5l-7.9-16.6L967.1,461.7z"/>
<path class="st4" d="M954.1,561.3v70.5H841.3v11.7h111.6v50.5h11.8V561.3H954.1z"/>
<path class="st4" d="M1005.7,475.6h-44.6l-4.7,79.9h-92.3c-8-0.1-15.7,2.9-21.7,8.2c-5.3,4.9-8.7,11.6-9.3,18.8v119.8h11.8
	l-1.2-116.1c0-1.2,0.1-2.4,0.3-3.6c0.7-3.2,2.8-8.9,8.2-12.2c2.4-1.4,5.1-2,7.8-2h104.6l5.9-83.4h35.2L1005.7,475.6z"/>
<path class="st8" d="M952.9,588.4c-37.6,0-68.1,42.6-68.1,95.1s30.5,95.1,68.1,95.1s68.1-42.6,68.1-95.1S990.5,588.4,952.9,588.4z
	 M956.4,765.6c-33.1,0-59.9-37.3-59.9-83.3s26.8-83.3,59.9-83.3s59.9,37.3,59.9,83.3S989.5,765.6,956.4,765.6z"/>
<ellipse class="st8" cx="959.9" cy="686.4" rx="10.6" ry="15.9"/>
<ellipse class="st4" cx="962.3" cy="687" rx="2.3" ry="4.7"/>
<path class="st4" d="M835.4,663.6v12.9c-3.7-2.3-7.7-1.7-11.3-0.1c-5.8,2.6-10.1,7.7-11.7,13.8c-2.8,9.8-8.4,29.2-13.4,47.5
	c-7,25.8-20,20-20,20l-89.9,6.5L651,744.6v-11.7h96.3c0,0,22.3,8.2,31.7,11.7s5.9-3.5,18.3-47.8S835.4,663.6,835.4,663.6z"/>
<polygon class="st9" points="779,757.5 689.2,764 651,744.6 745,743.4 "/>
<linearGradient id="SVGID_2_" gradientUnits="userSpaceOnUse" x1="2326.9944" y1="-23.8534" x2="2326.9944" y2="518.9805" gradientTransform="matrix(1 0 0 -1 -2067 769.56)">
	<stop  offset="0" style="stop-color:#808080;stop-opacity:0.25"/>
	<stop  offset="0.54" style="stop-color:#808080;stop-opacity:0.12"/>
	<stop  offset="1" style="stop-color:#808080;stop-opacity:0.1"/>
</linearGradient>
<path class="st18" d="M327,525c-3.2-2.9-5.9-6.3-8.2-10c-4.8-7.5-12.8-11.5-18.3-13.5v-2.4l0.3-0.1l-0.1-2.3h0.1l-0.4-6l0,0l0,0
	l-2-29.8c0,0-7-19.8,5.5-38.2s0.8-35.9-11-42.7c0,0-5.5-29-0.8-35.9c-6.4-3.7-12.9-7-19.7-10c-0.1-0.4-0.2-0.7-0.3-1.1
	c-0.1-2.7-0.3-5.4-0.5-8.1c0.2-1.4,0.4-2.8,0.8-4.2c0.1-0.6,0.3-1.1,0.5-1.7c11.5-4.4,19.1-15.3,19.1-27.6c0-3.5-0.6-7-1.9-10.2
	c0.6-1,1.1-2.1,1.4-3.3c0.8-3.1-0.1-6.4-1.9-9.5c-3.1-6.8-10.9-13.2-16.6-15.5c-8.1-3.3-20.4-2.5-28.9-1.5
	c-4.8,0.6-10.2,2.2-11.9,6.5c-0.6,1.6-0.6,3.4-1.1,5c-1.8,6.7-9.5,9.8-14.2,14.9c-4.2,4.5-6,10.6-7.4,16.5
	c-3.9,17-4.8,34.5-2.8,51.9c0.5,4,1.1,8,1.8,11.9c-2.9,4-5.4,11.1-4.3,23.3l-9.4,44.3l-3.9,26c0,0-2.4,10.7,7,19.8
	c6,5.8,13.3,15.7,17.7,22.1c-1.9,5.7-2.9,11.6-2.9,17.6c0.1,2.7,0.3,5.3,0.4,7.8c0.4,5.3,1.4,10.6,3,15.6c1.1,10.7,3.3,24.3,7.5,33
	l1.6,46.5c0,0-2.4,42.7-7,51.1s10.2,79.4,10.2,79.4v9.9l-2.5,7.3l-0.6-0.5c-11.7,14.5,0,19.8,0,19.8l8.3,0.3
	c-0.9,4.2,1.2,8.4,5,10.3c0,0,66.5,3,78.3,0s8.6-13.7,2.3-13c-2.4,0.3-5.9-0.3-9.4-1.2c3.6-4.3,0.7-10-3.9-9.5
	c-6.3,0.8-20.4-4.8-20.4-4.8l-0.1,0.1c-0.4-0.2-0.9-0.3-1.4-0.4c-5.2-1.2-10.4-2.6-15.5-4.3c-3-6.4-10-23.7-5-37.1
	c2.3-6.1,3-14.1,3-21.9c0.1-23.6,3.6-47.1,10.3-69.7l9.4-32c0,0,13.3-38.9,14.1-49.6l-0.1-15.6c11,7,19.8,4.9,25.3,1.6
	c2.9-1.7,3.9-5.3,2.2-8.2C327.9,525.9,327.5,525.4,327,525z M222.5,444c0.3-1.1,0.5-2.3,0.7-3.6c1.8,0,3.7,0,5.5-0.1
	c2.3,4.6,3.3,9.8,2.8,15C227.3,454,221,450.8,222.5,444L222.5,444z"/>
<path class="st19" d="M230,750.9l-3,9l9.8,9.8l32.4,7.5l23.4-2.3l-1.5-8.2l0,0c-0.9-3.6-3.8-6.4-7.4-7.3
	c-9.6-2.3-27.9-7.4-31.8-14.5L230,750.9z"/>
<path class="st9" d="M230,750.9l-3,9l9.8,9.8l32.4,7.5l23.4-2.3l-1.5-8.2l0,0c-0.9-3.6-3.8-6.4-7.4-7.3c-9.6-2.3-27.9-7.4-31.8-14.5
	L230,750.9z"/>
<path class="st20" d="M285,772.7l-4.5-6l4.5-7c0,0,13.5,5.5,19.6,4.7s9,9.8-2.3,12.8s-75.3,0-75.3,0s-11.3-5.3,0-19.6l9.8,7.5
	c0,0,16.6,9,24.9,7.5H285z"/>
<path class="st19" d="M305.3,785.6l-23.3,2.2l-32.4-7.5l-9.8-9.8l0.8-2.4l1.1-3.4l1.1-3.3l21.8-6c1.1,1.8,2.6,3.3,4.4,4.4
	c7.1,4.9,19.8,8.4,27.3,10.1c0.3,0.1,0.6,0.2,0.9,0.3c1.4,0.5,2.7,1.3,3.8,2.3c1.3,1.3,2.2,2.9,2.7,4.7L305.3,785.6z"/>
<path class="st9" d="M305.3,785.6l-23.3,2.2l-32.4-7.5l-9.8-9.8l0.8-2.4l9,6.9c0,0,16.6,9,24.9,7.5h23.3l-4.5-6l4.1-6.3
	c1.4,0.5,2.7,1.3,3.8,2.3c1.3,1.3,2.2,2.9,2.7,4.7L305.3,785.6z"/>
<path class="st20" d="M297.8,783.3l-4.5-6l4.5-7c0,0,13.6,5.5,19.6,4.7s9,9.8-2.3,12.8s-75.3,0-75.3,0s-11.3-5.3,0-19.6l9.8,7.5
	c0,0,16.6,9,24.9,7.5L297.8,783.3z"/>
<path class="st19" d="M279,346.4c0,0-36.1,3.8-30.9-11.3c1.5-4.3,1.9-8.8,1.1-13.3c-0.9-5.5-3.1-10.8-6.4-15.3l33.9,5.3
	c-2,3.4-3.6,7.1-4.6,10.9C268.1,338.6,279,346.4,279,346.4z"/>
<path class="st8" d="M217.2,518.1c0,0,0.8,32.4,8.3,48.2l1.5,46c0,0-2.3,42.2-6.8,50.5s9.8,78.3,9.8,78.3v12c0,0,24.1,9,30.9-1.5
	l-6.8-89.6l3-124.3L217.2,518.1z"/>
<path class="st9" d="M217.2,518.1c0,0,0.8,32.4,8.3,48.2l1.5,46c0,0-2.3,42.2-6.8,50.5s9.8,78.3,9.8,78.3v12c0,0,24.1,9,30.9-1.5
	l-6.8-89.6l3-124.3L217.2,518.1z"/>
<path class="st1" d="M202.1,414.2l-4.5,12l-3.8,25.6c-1,7.2,1.5,14.5,6.8,19.6c9,9,21.1,27.9,21.1,27.9l14.3-42.9
	c0,0-14.3-2.3-12-12s1.5-27.9,1.5-27.9L202.1,414.2z"/>
<path class="st9" d="M269.1,759.8c-9.7,15.2-24.7,6.6-27.4,4.9l1.1-3.3l21.8-6C265.8,757.2,267.3,758.7,269.1,759.8z"/>
<path class="st8" d="M299.3,547.5c-0.8,10.5-13.6,49-13.6,49l-9,31.6c-6.5,22.3-9.8,45.5-9.9,68.8c0,7.7-0.7,15.7-2.9,21.7
	c-6,16.6,6,39.2,6,39.2c-10.5,18.8-28.6,6-28.6,6v-12.1c0,0-14.3-65.5-10.6-78.3s5.2-47.5,5.2-47.5v-62.5c-12.1-12-19.4-28-20.7-45
	c-0.2-2.5-0.3-5.1-0.4-7.8c-0.6-17,11-36.9,15.5-44c1.1-1.7,1.8-2.7,1.8-2.7l66.5,26.4l0.1,0.1v2.6v5.7L299.3,547.5z"/>
<path class="st9" d="M276.7,311.7c-2,3.4-3.6,7.1-4.6,10.9c-7.4,2.8-15.7,2.5-22.9-0.8c-0.9-5.5-3.1-10.8-6.4-15.3L276.7,311.7z"/>
<circle class="st19" cx="261.6" cy="293.7" r="29.4"/>
<path class="st9" d="M299.3,498.6H299c-31.6,6.5-71.2-26.4-71.2-26.4c1.1-1.8,2-3.7,2.7-5.6c1.1-1.7,1.8-2.7,1.8-2.7l66.5,26.4
	l0.2,2.6L299.3,498.6z"/>
<path class="st1" d="M291,345.6c0,0-42.2-25.6-55.7-15.1l-18.8,24.1c0,0-12,3.8-9.8,27.9l-9,43.7l27.1,6.8c0,0,15.8,15.1,3,36.9
	c0,0,39.9,33.1,71.6,26.4l-2.3-35.4c0,0-6.8-19.6,5.3-37.7s0.8-35.4-10.5-42.2C291.8,381,286.5,352.4,291,345.6z"/>
<path class="st19" d="M293.3,499.3c0,0,15.8,3,23.4,15.1c2.2,3.6,4.8,6.9,7.9,9.8c2.4,2.2,2.6,6,0.3,8.5c-0.4,0.4-0.8,0.8-1.3,1.1
	c-6,3.6-15.7,5.8-28-4.3C274.5,512.1,293.3,499.3,293.3,499.3z"/>
<path class="st9" d="M269.9,359.9c0,0-15.1-1.5-18.8,37.6s-9.8,48.2-9.8,48.2s-3.8,20.3,5.3,32.4s26.4,37.7,26.4,37.7
	s18.8,5.3,22.6-13.5l-23.4-43.7c0,0-3.8-15.1,5.3-25.6S293.3,352.4,269.9,359.9z"/>
<path class="st1" d="M271.4,357.7c0,0-15.1-1.5-18.8,37.7s-9.8,48.2-9.8,48.2s-3.8,20.3,5.3,32.4c9,12.1,26.4,37.6,26.4,37.6
	s18.8,5.3,22.6-13.5l-23.4-43.7c0,0-3.8-15.1,5.3-25.6S294.8,350.1,271.4,357.7z"/>
<path class="st9" d="M283.9,385.9c0,0,1.5,23.4-5.3,36.2s-6.8,29.4,0,38.4"/>
<path class="st9" d="M287.6,357.3c0,0-6-6-23.4-6.8s-24.9-6-24.9-6"/>
<path class="st9" d="M245.7,255.7c-4.6,0.6-9.8,2.1-11.5,6.4c-0.6,1.6-0.6,3.3-1,5c-1.7,6.6-9.1,9.6-13.7,14.7
	c-4,4.4-5.8,10.5-7.1,16.3c-3.8,16.8-4.6,34.1-2.6,51.2c1.5,12.5,4.5,24.8,5.3,37.3s-0.7,25.8-7.5,36.3c-3,4.5-6.8,8.5-8.9,13.5
	c4.3,3.5,10.3,4,15.8,4.2c6.5,0.2,13,0.2,19.4,0c3.4-0.1,7-0.3,9.9-2.1c2.2-1.4,4-3.3,5.2-5.6c3.7-6.3,4.6-13.9,4.5-21.1
	s-1.3-14.5-1.5-21.9c-0.1-4,0.2-8.2,2.5-11.5c1.6-2.4,4.2-3.9,6.3-5.8c8.1-7.1,10.8-18.6,11.1-29.4s-1.5-21.6-0.6-32.3
	c0.4-4.2,1.9-9.3,6.1-10.1c1.3-0.3,2.7,0,3.9-0.5c3.3-1.3,3-6,3.9-9.4c1.1-3.9,4.4-6.8,5.3-10.7c2.2-9.1-9.4-20-17-23.2
	C265.7,253.9,253.9,254.7,245.7,255.7z"/>
<path class="st8" d="M245,254.2c-4.6,0.6-9.8,2.1-11.5,6.4c-0.4,1.6-0.8,3.3-1,5c-1.7,6.6-9.1,9.6-13.7,14.7
	c-4,4.4-5.8,10.4-7.1,16.3c-3.8,16.8-4.7,34.1-2.7,51.1c1.5,12.5,4.5,24.8,5.3,37.3s-0.7,25.8-7.5,36.3c-3,4.5-6.8,8.5-8.9,13.5
	c4.3,3.5,10.3,4,15.8,4.2c6.5,0.2,13,0.2,19.4,0c3.4-0.1,7-0.3,9.9-2.1c2.2-1.4,4-3.3,5.2-5.6c3.7-6.3,4.6-13.9,4.5-21.1
	s-1.3-14.5-1.5-21.9c-0.1-4,0.2-8.2,2.5-11.5c1.7-2.4,4.2-3.9,6.3-5.8c8.1-7.1,10.8-18.6,11.1-29.4s-1.5-21.5-0.6-32.3
	c0.4-4.2,1.9-9.3,6.1-10.1c1.3-0.3,2.7,0,3.9-0.5c3.3-1.3,3-6,3.9-9.4c1.1-3.8,4.3-6.8,5.3-10.7c2.2-9.1-9.4-20-17-23.2
	C264.9,252.4,253.1,253.2,245,254.2z"/>
</svg>
