<?xml version="1.0" encoding="utf-8"?>
<!-- Generator: Adobe Illustrator 24.1.1, SVG Export Plug-In . SVG Version: 6.00 Build 0)  -->
<svg version="1.1" id="a780dc9c-2107-4fd6-8fec-765248a5097a"
	 xmlns="http://www.w3.org/2000/svg" xmlns:xlink="http://www.w3.org/1999/xlink" x="0px" y="0px" viewBox="0 0 887.8 772.8"
	 style="enable-background:new 0 0 887.8 772.8;" xml:space="preserve">
<style type="text/css">
	.st0{fill:#E6E6E6;}
	.st1{fill:#E3651C;}
	.st2{fill:#3F3D56;}
	.st3{fill:#FFFFFF;}
	.st4{fill:#FF6584;}
	.st5{fill:#E1E1EA;}
</style>
<polygon class="st0" points="887.8,763.3 252.3,772.8 0,728.1 393.8,728.1 "/>
<circle class="st1" cx="731.8" cy="101.7" r="101.7"/>
<path class="st2" d="M179.8,733.4c0,0,1.5-31.2,32-27.5"/>
<circle class="st1" cx="171.2" cy="688.5" r="15.3"/>
<rect x="168.7" y="714.2" class="st2" width="4.3" height="30.1"/>
<path class="st2" d="M682.3,738.8c0,0,1.5-31.2,32-27.5"/>
<circle class="st1" cx="673.7" cy="693.8" r="15.3"/>
<rect x="671.2" y="719.5" class="st2" width="4.3" height="30.1"/>
<path class="st2" d="M755.7,744.1c0,0,1.5-31.2,32-27.5"/>
<circle class="st1" cx="747.1" cy="699.2" r="15.3"/>
<rect x="744.6" y="724.9" class="st2" width="4.3" height="30.1"/>
<path class="st2" d="M300.1,718.5c0,0,1.5-31.2,32-27.5"/>
<circle class="st1" cx="291.5" cy="673.6" r="15.3"/>
<rect x="289" y="699.3" class="st2" width="4.3" height="30.1"/>
<path class="st2" d="M73.4,723.9c0,0,1.5-31.2,32-27.5"/>
<ellipse transform="matrix(3.327792e-02 -0.9994 0.9994 3.327792e-02 -615.8804 721.0718)" class="st1" cx="64.8" cy="678.9" rx="15.3" ry="15.3"/>
<rect x="62.3" y="704.6" class="st2" width="4.3" height="30.1"/>
<circle class="st2" cx="442.3" cy="503.5" r="166.2"/>
<path class="st3" d="M337.6,516.8c15.6-18.6,43.3-21.1,62-5.6c2,1.7,3.9,3.5,5.6,5.6c19.5-18.6,20.2-49.6,1.6-69.1
	s-49.6-20.2-69.1-1.6s-20.2,49.6-1.6,69.1C336.5,515.8,337.1,516.3,337.6,516.8z"/>
<path class="st3" d="M469.6,516.8c15.6-18.6,43.3-21.1,62-5.6c2,1.7,3.9,3.5,5.6,5.6c19.5-18.6,20.2-49.6,1.6-69.1
	c-18.6-19.5-49.6-20.2-69.1-1.6s-20.2,49.6-1.6,69.1C468.5,515.8,469.1,516.3,469.6,516.8z"/>
<circle class="st2" cx="354.7" cy="464.8" r="16.8"/>
<circle class="st2" cx="486.7" cy="464.8" r="16.8"/>
<circle class="st4" cx="322.5" cy="545" r="19.6"/>
<circle class="st4" cx="547.4" cy="545" r="19.6"/>
<polygon class="st4" points="434.9,505.9 420.3,569.5 444.7,545 "/>
<polygon class="st2" points="510.3,750.4 493.7,736.4 494,750.4 488.9,750.4 488.5,735.6 466,750.4 456.6,750.4 488.3,729.5 
	487.1,685.7 486.1,652.7 491.3,652.5 492.2,685.7 493.5,729.5 518.3,750.4 "/>
<polygon class="st2" points="432.1,750.4 415.4,736.4 415.8,750.4 410.7,750.4 410.2,735.6 387.8,750.4 378.3,750.4 410.1,729.5 
	408.8,685.7 407.9,652.7 413.1,652.5 414,685.7 415.2,729.5 440.1,750.4 "/>
<path class="st2" d="M444.7,325c-4.6,0-8.6,3.5-11.3,9c-2.4-8.2-7.4-13.9-13.2-13.9c-0.4,0-0.8,0.1-1.2,0.2
	c-2.2-8.7-7.4-14.9-13.5-14.9c-8.1,0-14.7,10.9-14.7,24.4s6.6,24.4,14.7,24.4c0.4,0,0.8-0.1,1.2-0.2c2.2,8.7,7.4,14.9,13.5,14.9
	c4.6,0,8.6-3.5,11.3-9c2.4,8.2,7.4,13.9,13.2,13.9c8.1,0,14.7-10.9,14.7-24.4S452.8,325,444.7,325z"/>
<path class="st1" d="M286.3,566.5L286.3,566.5c-27,0-48.9-21.9-48.9-48.9l0,0v-24.4c0-27,21.9-48.9,48.9-48.9l0,0l0,0l0,0V566.5
	L286.3,566.5z"/>
<path class="st1" d="M598.3,444.2L598.3,444.2c27,0,48.9,21.9,48.9,48.9v24.4c0,27-21.9,48.9-48.9,48.9l0,0l0,0l0,0V444.2
	L598.3,444.2z"/>
<path class="st1" d="M623.9,497h-7.8c0-98.4-80-178.4-178.4-178.4s-178.4,80-178.4,178.4h-7.8c0-102.7,83.5-186.2,186.2-186.2
	S623.9,394.3,623.9,497z"/>
<path class="st2" d="M131.7,368L131.7,368L131.7,368z"/>
<path class="st5" d="M171.5,347.5L171.5,347.5l-3.6-1.5l-15.4-6.5l-5.5-2.3l-0.4,1.1l0,0l-7.4,18.7l20.8,8.8l0.1,0.1l-1.4,3.3
	c-0.2,0.3-0.4,0.6-0.5,1c-1,2.5,0.9,5,2.6,5.6s4-0.8,5-3.2c1-2.4,0-5.6-1.7-6.3l0,0l-3.6-1.5L148,360l7.1-18l-1.1-0.4l-7.1,18
	l-1.5-0.6l7.2-18.1l0.2,0.1l14.7,6.2l0.1,0.1l-1.4,3.3c-0.2,0.3-0.4,0.6-0.5,1c-1,2.5,0.9,5,2.6,5.6s4-0.8,5-3.2
	C174.2,351.3,173.3,348.2,171.5,347.5z"/>
<path class="st5" d="M243.7,393.4c-7.6-4.3-6.1-13.8-6.1-13.8c-0.2-6.2-5.3-5.3-5.3-5.3l-1.9,0.4c-0.9-0.4-1.8-0.6-2.8-0.5l-2.8,0.5
	c6.4,1.5,5.9,6.9,5.9,6.9l0.9,6.3l-16.8-6.8l1.9-4.6c0.3-0.4,0.5-0.9,0.7-1.3c1.4-3.4-1.2-6.9-3.7-7.8c-2.4-1-5.5,1-6.9,4.5
	c-1.3,3.4,0,7.7,2.3,8.8l0,0l5.1,2.1v-0.1L243.7,393.4z M235.1,382.3l0.5,6c-1.9-2.7-2.8-5.9-2.5-9.2c0-1.2-0.4-2.3-1.1-3.2
	C234.2,377.3,235.4,379.8,235.1,382.3L235.1,382.3z"/>
<path class="st5" d="M115.3,304.5L115.3,304.5l-5.1-2.1L89,294.2l5.3-4.8c2.2-2.9,6.2-3.6,9.2-1.5l-1.7-2.5c0,0-3.1-4.1-7.5,0.2
	c0,0-5.4,8-13.9,5.9l28.9,12.2l0.2,0.1l-2,4.6c-0.3,0.4-0.5,0.9-0.7,1.3c-1.4,3.4,1.2,6.9,3.7,7.8s5.5-1,6.9-4.5
	C119,309.8,117.7,305.5,115.3,304.5z"/>
<path class="st5" d="M192.8,277.5l-2,4.6c-0.3,0.4-0.5,0.9-0.7,1.3c-1.4,3.4,1.2,6.9,3.7,7.8s5.5-1,6.9-4.5c1.3-3.4,0-7.7-2.3-8.8
	l0,0l-5.1-2.1l-17.3-6.7l9.9-25l-1.5-0.6l-9.9,25l-2.1-0.8l9.9-25.1l0.3,0.1l20.4,8.6l0.2,0.1l-2,4.6c-0.3,0.4-0.5,0.9-0.7,1.3
	c-1.4,3.4,1.2,6.9,3.7,7.8s5.5-1,6.9-4.5c1.3-3.4,0-7.7-2.3-8.8l0,0l-5.1-2.1L183,241l0,0l0,0l-0.7-0.3l-7.7-3.2l-10.9,27.4
	l28.9,12.2L192.8,277.5z"/>
<path class="st5" d="M101.1,137L101.1,137l-8.7-3.6L56,119.2l9.2-8.2c0,0,6.1-8.5,15.9-2.6l-2.9-4.2c0,0-5.4-7.1-12.9,0.4
	c0,0-9.3,13.7-23.9,10.2l49.8,21.1l0.3,0.2l-3.4,7.9c-0.5,0.7-0.9,1.5-1.2,2.3c-2.4,5.9,2.1,11.8,6.3,13.5c4.2,1.7,9.5-1.8,11.9-7.7
	C107.4,146.2,105.1,138.8,101.1,137z"/>
<path class="st5" d="M127.8,255.9c-18.1-10.3-14.5-33-14.5-33c-0.5-14.7-12.6-12.7-12.6-12.7l-4.4,1c-2.1-1-4.3-1.4-6.6-1.2
	l-6.7,1.1c15.4,3.6,14.1,16.5,14.1,16.5l2.2,15l-40.2-16.2l4.6-10.9c0.6-1,1.2-2.1,1.6-3.2c3.3-8.2-2.9-16.5-8.7-18.8
	S43.2,196,40,204.3c-3.2,8.1-0.1,18.5,5.6,21l0,0l12.1,5l0.1-0.3L127.8,255.9z M107.4,229.5l1.3,14.4c-7.6-10.1-6-22.1-6-22.1
	c-0.1-2.8-1-5.5-2.7-7.7C108.6,219.4,107.4,229.5,107.4,229.5L107.4,229.5z"/>
</svg>
